<svg width="14" height="21" viewBox="0 0 14 21" fill="none" xmlns="http://www.w3.org/2000/svg">
<path d="M13.9996 14.325C13.9996 15.1057 13.7734 15.8396 13.3209 16.5266C12.8866 17.2136 12.2351 17.7914 11.3664 18.2598C10.5158 18.7282 9.50234 19.0093 8.326 19.103V21.0001H6.56148V19.103C4.8603 18.9624 3.48488 18.5018 2.43521 17.7211C1.38555 16.9404 0.860718 15.9099 0.860718 14.6295H4.17259C4.22688 15.2384 4.4531 15.7459 4.85125 16.1519C5.2494 16.5422 5.81947 16.7921 6.56148 16.9014V11.7487C5.34893 11.4832 4.36261 11.2178 3.60251 10.9523C2.84241 10.6713 2.19089 10.2341 1.64797 9.64074C1.12313 9.0474 0.860718 8.23546 0.860718 7.20492C0.860718 5.90894 1.38555 4.83936 2.43521 3.99619C3.48488 3.13741 4.8603 2.63776 6.56148 2.49723V0.600098H8.326V2.49723C9.91859 2.62214 11.1945 3.05934 12.1536 3.80882C13.1309 4.54269 13.6829 5.55762 13.8096 6.8536H10.4977C10.4434 6.36956 10.2262 5.94017 9.8462 5.56542C9.46615 5.17507 8.95941 4.90963 8.326 4.7691V9.82811C9.53854 10.0779 10.5249 10.3434 11.285 10.6244C12.0451 10.8899 12.6875 11.3193 13.2124 11.9126C13.7372 12.4903 13.9996 13.2945 13.9996 14.325ZM4.00971 7.06439C4.00971 7.70458 4.22688 8.20423 4.66122 8.56336C5.11366 8.92249 5.74708 9.21135 6.56148 9.42995V4.69883C5.78328 4.77691 5.15891 5.01893 4.68837 5.4249C4.23593 5.83087 4.00971 6.37737 4.00971 7.06439ZM8.326 16.9014C9.12229 16.7921 9.74666 16.5188 10.1991 16.0816C10.6515 15.6288 10.8778 15.0901 10.8778 14.4655C10.8778 13.841 10.6515 13.3569 10.1991 13.0134C9.76476 12.6543 9.14039 12.3654 8.326 12.1468V16.9014Z" fill="#49AA26"/>
</svg>
