<svg id="Capa_1" enable-background="new 0 0 512 512" height="22" viewBox="0 0 512 512" width="22" xmlns="http://www.w3.org/2000/svg"><g><path d="m473.931 152.931h-25.932v-92.918c0-12.374-10.067-22.441-22.441-22.441h-22.441v-30.092c0-4.132-3.349-7.48-7.48-7.48h-279.272c-4.131 0-7.48 3.349-7.48 7.48v30.091h-22.442c-11.22 0-22.441 11.27-22.441 22.441v92.918h-25.933c-20.624 0-37.402 16.778-37.402 37.402v219.428c0 4.132 3.349 7.48 7.48 7.48h100.737v87.279c0 4.132 3.349 7.48 7.48 7.48h279.271c4.131 0 7.48-3.349 7.48-7.48v-87.279h100.737c4.131 0 7.48-3.349 7.48-7.48v-219.427c.001-20.624-16.777-37.402-37.401-37.402zm-48.374-100.398c4.125 0 7.48 3.355 7.48 7.48v92.918h-29.922v-100.398zm-346.595 279.93h29.922v29.921h-29.922zm309.193 164.576h-264.31v-164.576h264.31zm44.883-164.576v29.921h-29.922v-29.921zm63.334 69.817h-93.257v-24.935h37.402c4.131 0 7.48-3.349 7.48-7.48v-74.805c0-12.374-10.067-22.441-22.441-22.441h-13.625c-4.131 0-7.48 3.349-7.48 7.48 0 4.132 3.349 7.48 7.48 7.48h13.625c4.125 0 7.48 3.355 7.48 7.48v22.442h-354.074v-22.441c0-4.125 3.355-7.48 7.48-7.48h292.895c4.131 0 7.48-3.349 7.48-7.48 0-4.132-3.349-7.48-7.48-7.48h-292.894c-12.374 0-22.441 10.067-22.441 22.441v74.805c0 4.132 3.349 7.48 7.48 7.48h37.402v24.935h-93.256v-211.948c0-12.374 10.067-22.441 22.441-22.441h167.224c4.131 0 7.48-3.349 7.48-7.48s-3.349-7.48-7.48-7.48h-81.447v-49.86c0-4.132-3.349-7.48-7.48-7.48s-7.48 3.349-7.48 7.48v49.86h-29.924v-92.919c-.083-4.197 3.034-7.356 7.48-7.48h22.441v17.943c0 4.132 3.349 7.48 7.48 7.48s7.48-3.349 7.48-7.48v-55.515h264.31v137.97h-150.266c-4.131 0-7.48 3.349-7.48 7.48s3.349 7.48 7.48 7.48h236.044c12.374 0 22.441 10.067 22.441 22.441z"/><path d="m352.415 362.385h-192.83c-4.131 0-7.48 3.349-7.48 7.48 0 4.132 3.349 7.48 7.48 7.48h192.83c4.131 0 7.48-3.349 7.48-7.48 0-4.132-3.349-7.48-7.48-7.48z"/><path d="m352.415 402.281h-192.83c-4.131 0-7.48 3.349-7.48 7.48 0 4.132 3.349 7.48 7.48 7.48h192.83c4.131 0 7.48-3.349 7.48-7.48 0-4.132-3.349-7.48-7.48-7.48z"/><path d="m352.415 442.176h-192.83c-4.131 0-7.48 3.349-7.48 7.48 0 4.132 3.349 7.48 7.48 7.48h192.83c4.131 0 7.48-3.349 7.48-7.48s-3.349-7.48-7.48-7.48z"/><path d="m111.378 192.828h-39.896c-4.131 0-7.48 3.349-7.48 7.48v39.896c0 4.132 3.349 7.48 7.48 7.48h39.896c4.131 0 7.48-3.349 7.48-7.48v-39.896c0-4.132-3.349-7.48-7.48-7.48zm-7.481 39.895h-24.935v-24.935h24.935z"/><path d="m191.169 192.828h-39.896c-4.131 0-7.48 3.349-7.48 7.48v39.896c0 4.132 3.349 7.48 7.48 7.48h39.896c4.131 0 7.48-3.349 7.48-7.48v-39.896c.001-4.132-3.348-7.48-7.48-7.48zm-7.48 39.895h-24.935v-24.935h24.935z"/></g></svg>